<svg version="1.1" id="Capa_1" xmlns="http://www.w3.org/2000/svg" xmlns:xlink="http://www.w3.org/1999/xlink" x="0px" y="0px"
	 viewBox="0 0 1200 1200" enable-background="new 0 0 1200 1200" xml:space="preserve" width="400px" height="200px">
<g>
	<g>
		<g>
			<path fill="#649661" d="M1149.956,523.196c-0.012,0.101-0.045,0.199-0.06,0.303c-0.122,0.797-0.357,1.58-0.735,2.294
				c-0.417,0.803-0.994,1.529-1.702,2.136c-0.357,0.3-0.747,0.574-1.166,0.812l-108.555,60.776l-108.552,60.779
				c-1.119,0.631-2.339,0.925-3.538,0.925c-2.535,0-5.002-1.33-6.335-3.698l-20.953-37.27l-2.157-3.835v523.129
				c0,5.513-4.469,9.983-9.982,9.983h-134.18H447.959H313.652c-5.513,0-9.982-4.469-9.982-9.983V606.657l-11.316,20.126
				l-11.664,20.742c-1.336,2.368-3.803,3.698-6.338,3.698c-1.199,0-2.419-0.295-3.538-0.925L53.71,528.742
				c-1.122-0.628-1.988-1.523-2.615-2.55c-0.223-0.363-0.408-0.738-0.562-1.131c-0.399-1.015-0.595-2.101-0.515-3.202
				c0.071-0.914,0.312-1.824,0.744-2.693l174.365-348.874c0-0.003,0.003-0.003,0.003-0.006c0.241-0.479,0.527-0.91,0.851-1.309
				c0.06-0.074,0.134-0.137,0.196-0.208c0.292-0.33,0.598-0.631,0.937-0.899c0.134-0.107,0.277-0.193,0.417-0.295
				c0.304-0.202,0.61-0.384,0.937-0.541c0.095-0.048,0.173-0.116,0.274-0.158l219.217-94.702l25.731-11.113
				c2.226-0.964,4.826-0.744,6.858,0.595c2.05,1.348,3.276,3.621,3.276,6.067v15.731c0,64.959,53.608,117.627,118.91,116.089
				c63.394-1.497,113.325-54.855,113.325-118.264v-13.41c0-1.324,0.292-2.654,0.964-3.794c1.982-3.324,5.948-4.392,9.167-3.011
				l25.85,11.167l218.524,94.398c0.887,0.28,1.717,0.723,2.443,1.324c0.018,0.012,0.036,0.021,0.053,0.036
				c0.318,0.268,0.607,0.574,0.881,0.905c0.039,0.048,0.092,0.086,0.134,0.14c0.304,0.384,0.571,0.8,0.797,1.259l174.365,348.874
				c0.214,0.434,0.384,0.878,0.509,1.33C1149.991,521.39,1150.054,522.303,1149.956,523.196"/>
			<path fill="#FAFAFA" d="M752.04,72.231v1067.297H447.961H313.65c-5.51,0-9.98-4.469-9.98-9.979V606.655l-11.319,20.129
				l-11.664,20.742c-1.333,2.368-3.8,3.698-6.338,3.698c-1.196,0-2.416-0.297-3.535-0.928L53.712,528.744
				c-1.122-0.628-1.988-1.526-2.618-2.553c-0.22-0.363-0.408-0.738-0.562-1.131c-0.396-1.012-0.595-2.101-0.512-3.202
				c0.068-0.91,0.309-1.824,0.744-2.69l174.363-348.877c0-0.003,0.003-0.003,0.003-0.006c0.241-0.476,0.53-0.91,0.851-1.306
				c0.062-0.077,0.134-0.137,0.199-0.211c0.289-0.327,0.598-0.631,0.934-0.896c0.134-0.11,0.28-0.196,0.42-0.295
				c0.301-0.202,0.61-0.387,0.934-0.545c0.095-0.045,0.176-0.116,0.274-0.155l219.22-94.705l25.728-11.113
				c2.226-0.961,4.826-0.744,6.861,0.595c2.047,1.348,3.273,3.621,3.273,6.067v15.731c0,64.959,53.608,117.63,118.91,116.089
				c63.394-1.497,113.325-54.852,113.325-118.264v-13.41c0-1.321,0.292-2.651,0.964-3.791c1.982-3.324,5.948-4.395,9.167-3.014
				L752.04,72.231z"/>
			<path fill="#C57831" d="M447.96,72.176V1139.53H313.65c-5.51,0-9.98-4.469-9.98-9.983V606.657l-11.319,20.126l-11.664,20.742
				c-1.333,2.368-3.8,3.698-6.338,3.698c-1.196,0-2.416-0.295-3.535-0.925L53.711,528.742c-1.122-0.628-1.988-1.523-2.618-2.55
				c-0.22-0.363-0.408-0.738-0.559-1.131c-0.399-1.015-0.598-2.101-0.515-3.202c0.068-0.913,0.309-1.824,0.744-2.69l174.363-348.877
				c0-0.003,0.003-0.003,0.003-0.006c0.241-0.479,0.53-0.91,0.854-1.309c0.06-0.074,0.131-0.137,0.196-0.208
				c0.292-0.327,0.598-0.631,0.934-0.899c0.134-0.107,0.28-0.193,0.42-0.295c0.303-0.202,0.61-0.384,0.934-0.542
				c0.098-0.048,0.176-0.116,0.274-0.158L447.96,72.176z"/>
		</g>
	</g>
</g>
</svg>
