<svg version="1.1" id="Capa_1" xmlns="http://www.w3.org/2000/svg" xmlns:xlink="http://www.w3.org/1999/xlink" x="0px" y="0px"
	 viewBox="0 0 1200 1200" enable-background="new 0 0 1200 1200" xml:space="preserve" width="400px" height="200px">
<g>
	<g>
		<g>
			<path fill="#AA3A36" d="M1149.956,523.196c-0.012,0.101-0.045,0.199-0.06,0.304c-0.122,0.797-0.357,1.58-0.735,2.294
				c-0.417,0.803-0.994,1.529-1.702,2.136c-0.357,0.3-0.747,0.574-1.166,0.812l-108.555,60.776l-108.552,60.779
				c-1.119,0.631-2.339,0.925-3.538,0.925c-2.535,0-5.002-1.33-6.335-3.698l-20.953-37.27l-2.157-3.835v216.09v307.039
				c0,5.514-4.469,9.983-9.982,9.983H313.652c-5.513,0-9.982-4.469-9.982-9.983V822.508V606.656l-11.316,20.126l-11.664,20.742
				c-1.336,2.368-3.803,3.698-6.338,3.698c-1.199,0-2.419-0.295-3.538-0.925L53.71,528.742c-1.122-0.628-1.988-1.523-2.615-2.55
				c-0.223-0.363-0.408-0.738-0.562-1.131c-0.399-1.015-0.595-2.101-0.515-3.202c0.071-0.914,0.312-1.824,0.744-2.693l45.414-90.863
				l128.952-258.01c0-0.003,0.003-0.003,0.003-0.006c0.241-0.479,0.527-0.91,0.851-1.309c0.06-0.074,0.134-0.137,0.196-0.208
				c0.292-0.33,0.598-0.631,0.937-0.899c0.134-0.107,0.277-0.193,0.417-0.295c0.304-0.202,0.61-0.384,0.937-0.541
				c0.095-0.048,0.173-0.116,0.274-0.158L473.691,61.063c2.226-0.964,4.826-0.744,6.858,0.595c2.05,1.348,3.276,3.621,3.276,6.067
				v15.731c0,64.959,53.608,117.627,118.91,116.089c63.394-1.497,113.325-54.855,113.325-118.264v-13.41
				c0-1.324,0.292-2.654,0.964-3.794c1.982-3.324,5.948-4.392,9.167-3.011l244.374,105.565c0.887,0.28,1.717,0.723,2.443,1.324
				c0.018,0.012,0.036,0.021,0.053,0.036c0.318,0.268,0.607,0.574,0.881,0.905c0.039,0.048,0.092,0.086,0.134,0.14
				c0.304,0.384,0.571,0.8,0.797,1.259l128.952,258.01l45.414,90.863c0.214,0.434,0.384,0.878,0.509,1.33
				C1149.991,521.39,1150.054,522.303,1149.956,523.196"/>
			<path fill="#FAFAFA" d="M1149.956,523.196c-0.012,0.101-0.045,0.199-0.06,0.304c-0.122,0.797-0.357,1.58-0.735,2.294
				c-0.417,0.803-0.994,1.529-1.702,2.136c-0.357,0.3-0.747,0.574-1.166,0.812l-108.555,60.776l-108.552,60.779
				c-1.119,0.631-2.339,0.925-3.538,0.925c-2.535,0-5.002-1.33-6.335-3.698l-20.953-37.27l-2.157-3.835v216.09H303.669V606.656
				l-11.316,20.126l-11.664,20.742c-1.336,2.368-3.803,3.698-6.338,3.698c-1.199,0-2.419-0.295-3.538-0.925L53.71,528.742
				c-1.122-0.628-1.988-1.523-2.615-2.55c-0.223-0.363-0.408-0.738-0.562-1.131c-0.399-1.015-0.595-2.101-0.515-3.202
				c0.071-0.914,0.312-1.824,0.744-2.693l45.414-90.863h1007.649l45.414,90.863c0.214,0.434,0.384,0.878,0.509,1.33
				C1149.991,521.39,1150.054,522.303,1149.956,523.196"/>
		</g>
	</g>
</g>
</svg>
