<svg version="1.1" id="Capa_1" xmlns="http://www.w3.org/2000/svg" xmlns:xlink="http://www.w3.org/1999/xlink" x="0px" y="0px"
	 viewBox="0 0 1200 1200" enable-background="new 0 0 1200 1200" xml:space="preserve" width="400px" height="200px">
<g>
	<g>
		<g>
			<path fill="#FAFAFA" d="M1149.955,523.196c-0.012,0.101-0.045,0.199-0.06,0.304c-0.122,0.797-0.357,1.58-0.735,2.294
				c-0.417,0.803-0.994,1.529-1.702,2.136c-0.357,0.3-0.747,0.574-1.166,0.812l-108.555,60.776l-108.552,60.779
				c-1.119,0.631-2.339,0.925-3.538,0.925c-2.535,0-5.002-1.33-6.335-3.698l-20.953-37.27l-2.157-3.835v523.129
				c0,5.514-4.469,9.983-9.982,9.983H313.652c-5.513,0-9.982-4.469-9.982-9.983V606.657l-11.316,20.126l-11.664,20.742
				c-1.336,2.368-3.803,3.698-6.338,3.698c-1.199,0-2.419-0.295-3.538-0.925L53.71,528.742c-1.122-0.628-1.988-1.523-2.615-2.55
				c-0.223-0.363-0.408-0.738-0.562-1.131c-0.399-1.015-0.595-2.101-0.515-3.202c0.071-0.913,0.312-1.824,0.744-2.693
				l174.365-348.874c0-0.003,0.003-0.003,0.003-0.006c0.241-0.479,0.527-0.91,0.851-1.309c0.06-0.074,0.134-0.137,0.196-0.208
				c0.292-0.33,0.598-0.631,0.937-0.899c0.134-0.107,0.277-0.193,0.417-0.295c0.304-0.202,0.61-0.384,0.937-0.541
				c0.095-0.048,0.173-0.116,0.274-0.158L473.69,61.063c2.226-0.964,4.826-0.744,6.858,0.595c2.05,1.348,3.276,3.621,3.276,6.067
				v15.731c0,64.959,53.608,117.627,118.91,116.089c63.394-1.497,113.325-54.855,113.325-118.264v-13.41
				c0-1.324,0.292-2.654,0.964-3.794c1.982-3.324,5.948-4.392,9.167-3.011l244.374,105.565c0.887,0.28,1.717,0.723,2.443,1.324
				c0.018,0.012,0.036,0.021,0.054,0.036c0.318,0.268,0.607,0.574,0.881,0.905c0.039,0.048,0.092,0.086,0.134,0.14
				c0.304,0.384,0.571,0.8,0.797,1.259l25.612,51.243l148.753,297.631c0.214,0.434,0.384,0.878,0.509,1.33
				C1149.991,521.39,1150.053,522.304,1149.955,523.196"/>
			<path fill="#AA3A36" d="M858.419,304.644c-0.089,0.333-0.08,0.661-0.068,0.982c-0.009-0.036-0.018-0.068-0.027-0.134
				C858.356,305.4,858.226,305.308,858.419,304.644 M1149.956,523.198c-0.012,0.101-0.045,0.199-0.059,0.301
				c-0.122,0.8-0.357,1.58-0.735,2.297c-0.419,0.8-0.994,1.526-1.702,2.133c-0.357,0.303-0.747,0.577-1.169,0.815l-108.552,60.776
				l-108.555,60.776c-1.119,0.631-2.339,0.928-3.535,0.928c-2.538,0-5.005-1.33-6.335-3.698l-20.953-37.273l-2.16-3.835v523.132
				c0,5.51-4.466,9.98-9.98,9.98H313.65c-5.51,0-9.98-4.469-9.98-9.98V606.655l-11.318,20.129l-11.664,20.742
				c-1.333,2.368-3.8,3.698-6.338,3.698c-1.196,0-2.416-0.297-3.535-0.928L53.711,528.744c-1.122-0.628-1.988-1.526-2.618-2.553
				c-0.22-0.363-0.408-0.738-0.559-1.131c-0.399-1.012-0.595-2.101-0.515-3.202c0.068-0.91,0.309-1.824,0.744-2.69l174.362-348.877
				c0-0.003,0.003-0.003,0.003-0.006c0.241-0.476,0.53-0.91,0.854-1.306c0.06-0.077,0.131-0.137,0.196-0.211
				c0.292-0.327,0.598-0.631,0.934-0.896c0.134-0.11,0.28-0.196,0.42-0.295c0.304-0.202,0.61-0.387,0.934-0.544
				c0.098-0.045,0.176-0.116,0.274-0.155L473.689,61.062c2.229-0.961,4.829-0.744,6.861,0.595c2.05,1.348,3.276,3.621,3.276,6.067
				v15.734c0,64.959,53.605,117.627,118.91,116.086c63.391-1.497,113.325-54.852,113.325-118.264V67.87
				c0-1.321,0.289-2.651,0.964-3.791c1.982-3.324,5.948-4.395,9.167-3.014l244.374,105.568c0.884,0.277,1.717,0.723,2.443,1.324
				c0.018,0.012,0.036,0.021,0.054,0.036c0.318,0.265,0.607,0.574,0.878,0.902c0.042,0.051,0.095,0.089,0.134,0.14
				c0.306,0.384,0.574,0.803,0.8,1.259l25.609,51.246l148.753,297.631c0.217,0.434,0.384,0.878,0.509,1.327
				C1149.989,521.389,1150.054,522.305,1149.956,523.198 M706.848,287.92c-20.09,0-39.249,13.514-39.249,13.514
				c-7.831,6.236,3.065,12.033,3.264,14.469c0.131,1.565-12.8,3.63-19.724,11.679c-0.806,0.943-1.544,1.937-2.196,2.955
				c0.55-0.309,1.092-0.64,1.66-0.916c4.103-2.008,8.703-3.071,13.3-3.071c0.586,0,1.175,0.018,1.693,0.048
				c4.329,0.235,8.602,1.348,13.062,3.401l0.351,0.164l0.345,0.187l3.568,1.964l0.074,0.042l0.077,0.045
				c0.637,0.363,0.89,0.473,0.973,0.5l0.167,0.065l0.167,0.068c0.8,0.333,1.511,0.53,2.121,0.586l0.083,0.009l0.083,0.006
				c0.306,0.033,0.616,0.051,0.922,0.051c0.479,0,0.955-0.042,1.422-0.122l0.098-0.018l0.101-0.018
				c0.137-0.018,0.411-0.08,0.928-0.238l0.309-0.104l0.116-0.051c2.223-1.146,4.692-1.803,7.198-1.919
				c2.217-0.916,4.606-1.401,7.013-1.401c2.023,0,4.023,0.336,5.945,0.991c6.588,2.258,11.069,7.915,12.155,14.342
				c4.912,2.38,8.307,6.9,9.444,12.051c3.636,1.767,7.272,4.091,9.881,7.87c2.782,4.029,5.942,7.334,9.188,9.753
				c-0.149,0.625-0.33,1.247-0.577,1.845c-0.717,1.842-1.988,3.446-3.734,4.767l-0.19,0.146c-0.824,0.628-1.226,1.708-0.937,2.767
				c0.378,1.389,1.818,2.211,3.211,1.83c2.359-0.646,4.719-1.872,6.73-3.565c0.027,3.041,0.827,6.013,2.142,8.51
				c0.485,0.916,1.5,1.5,2.595,1.378c1.434-0.158,2.47-1.449,2.312-2.883l-0.021-0.208c-0.244-2.214,0.027-4.297,0.824-6.132
				c0.381-0.916,0.863-1.782,1.443-2.568c0.292-0.393,0.592-0.768,0.914-1.107c0.045-0.048,0.101-0.101,0.155-0.158
				c0.196,0.44,0.387,0.887,0.547,1.363c0.378,1.187,0.601,2.481,0.714,3.832c0.107,1.357,0.051,2.764-0.068,4.198l-0.012,0.161
				c-0.092,1.104,0.536,2.184,1.613,2.624c1.333,0.541,2.853-0.095,3.398-1.431c0.637-1.562,1.217-3.187,1.616-4.915
				c0.39-1.726,0.652-3.538,0.658-5.427c-0.006-1.889-0.226-3.847-0.792-5.808c-0.22-0.759-0.503-1.517-0.836-2.273
				c3.633-7.587-0.928-16.213-12.994-20.197c-5.713-1.884-11.973-5.02-17.329-8.254c1.312-2.065,2.49-4.082,3.517-5.885
				c1.925-3.392,4.853-4.758,8.397-4.758c7.724,0,18.376,6.48,27.99,12.637c2.493,1.601,4.484,2.309,6.12,2.309
				c7.57,0,7.495-15.219,14.115-28.082c5.998-11.655-0.911-15.133-8.894-15.133c-2.728,0-5.579,0.405-8.087,1.03
				c-1.97,0.488-3.945,0.687-5.844,0.687c-6.186,0-11.562-2.083-13.342-2.853c-0.015-0.006-0.021-0.018-0.036-0.024
				c-1.648,0.479-4.761,1.809-6.058,5.293l-3.794-2.351c0,0-1.119-6.486,5.094-7.01c0,0,1.205,0.113,2.529,0.619
				c-5.96-10.033-16.555-12.643-25.925-12.643c-8.542,0-16.055,2.154-18.099,2.794c-0.173,0.053-0.342,0.077-0.515,0.077
				c-0.202,0-0.408-0.036-0.604-0.104C715.242,288.509,711.023,287.92,706.848,287.92 M713.382,367.444
				c-0.009,0-0.027-0.003-0.045-0.006c0.625,0.179,1.256,0.268,1.875,0.268c2.937,0,5.635-1.925,6.489-4.886
				c1.035-3.585-1.035-7.328-4.621-8.361c-0.97-0.22-1.381-0.244-2.002-0.306c-0.577-0.057-1.125-0.071-1.681-0.083h-0.06
				c-1.083,0-2.157,0.054-3.234,0.217c-0.339,0.048-0.669,0.158-1.006,0.22l0.952-0.916c0.821-0.803,1.473-1.803,1.869-2.964
				c1.354-3.948-0.753-8.245-4.698-9.596c-0.812-0.277-1.633-0.408-2.443-0.408c-1.681,0-3.303,0.565-4.609,1.571
				c-0.527-0.125-1.068-0.19-1.613-0.19c-1.032,0-2.08,0.235-3.059,0.747h0.003c0.024,0-0.497,0.259-0.824,0.384
				c-0.372,0.164-0.8,0.301-1.208,0.44c-0.839,0.262-1.711,0.494-2.598,0.634c-1.086,0.19-2.184,0.283-3.279,0.283
				c-0.693,0-1.392-0.039-2.08-0.113c-1.791-0.164-3.55-0.649-5.266-1.36c-0.869-0.327-1.705-0.762-2.535-1.238l-3.568-1.964
				c-2.755-1.268-5.817-2.246-9.135-2.428c-0.366-0.021-0.735-0.03-1.104-0.03c-2.955,0-5.96,0.702-8.548,1.97
				c-2.931,1.416-5.371,3.428-7.355,5.74c-1.009,1.14-1.863,2.428-2.66,3.797c-0.863,1.628-1.178,2.529-1.675,3.603
				c-1.773,4.02-3.865,7.215-6.802,8.849c-1.455,0.827-3.115,1.357-4.996,1.47c-0.188,0.039-0.381,0.048-0.583,0.048
				c-0.211,0-0.422-0.009-0.637-0.009c-0.068,0-0.137,0-0.208,0.003c-0.176,0.003-0.354,0.006-0.544,0.006
				c-0.318,0-0.672-0.006-1.113-0.03c-0.925-0.051-1.863-0.071-2.794-0.071c-0.357,0-0.711,0.003-1.065,0.009
				c-5.162,0.092-10.435,0.872-15.422,2.824c-4.975,1.91-9.617,5.091-13.006,9.304c-1.062,1.324-0.931,3.276,0.345,4.433
				c0.622,0.568,1.404,0.845,2.184,0.845c0.881,0,1.761-0.357,2.401-1.062c1.634-1.794,3.55-3.228,5.627-4.404l12.797-3.624
				c1.059-0.077,2.122-0.119,3.187-0.119c0.598,0,1.196,0.015,1.794,0.045c1.104,0.051,2.211,0.128,3.318,0.259
				c0.491,0.06,1.199,0.107,1.934,0.152c0.556,0.018,1.104,0.089,1.669,0.089c0.161,0,0.324-0.006,0.494-0.021
				c2.907-0.003,6.016-0.675,8.813-2.047c2.812-1.36,5.237-3.404,7.093-5.638c0.265-0.309,0.488-0.637,0.741-0.949
				c4.517-5.484,8.888-6.986,12.315-6.986c4.148,0,6.924,2.202,6.924,2.202c-2.755,0-6.695,1.675-7.046,2.077
				c-0.259,0.324-0.503,0.619-0.744,1.021c-0.113,0.176-0.235,0.393-0.348,0.634l-0.173,0.39c-0.06,0.164-0.107,0.241-0.217,0.646
				c-0.491,1.836,0.598,3.719,2.434,4.21c0.298,0.08,0.595,0.116,0.89,0.116c1.488,0,2.853-0.973,3.294-2.461l-0.068,0.238
				c-0.024,0.063-0.021,0.071-0.021,0.086c-0.009,0.03-0.012,0.051,0.003,0.051c0,0,0.003,0,0.006-0.003
				c0,0.003,0.003,0.006,0.006,0.006c0.018,0,0.074-0.03,0.104-0.048c0.122-0.071,0.306-0.161,0.506-0.265
				c0.455-0.19,1.024-0.378,1.678-0.509c1.08-0.229,2.339-0.315,3.633-0.315c0.265,0,0.533,0.003,0.8,0.009
				c1.589,0.048,3.234,0.214,4.895,0.476c0.729,0.119,1.872,0.232,2.931,0.342c1.065,0.14,2.139,0.119,3.225,0.137
				c4.329-0.003,8.697-0.872,12.759-2.476c0.015-0.003,0.03-0.009,0.042-0.015c-0.071,0.095-0.146,0.199-0.208,0.283
				c-0.351,0.527-0.693,1.068-1.086,1.547c-1.506,2.011-3.374,3.6-5.499,4.654c-1.556,0.753-3.273,1.172-5.014,1.172
				c-0.637,0-1.273-0.06-1.907-0.173l-0.161-0.03c-0.19-0.036-0.384-0.053-0.58-0.053c-1.288,0-2.508,0.774-3.017,2.041
				c-0.669,1.669,0.14,3.562,1.809,4.228c2.095,0.845,4.362,1.247,6.635,1.247c1.639,0,3.282-0.208,4.865-0.619
				c3.782-0.988,7.236-2.987,10.033-5.49c0.723-0.616,1.372-1.282,2.029-1.952c0.378-0.396,0.452-0.387,0.681-0.604
				c0.199-0.161,0.372-0.345,0.586-0.455c0.678-0.512,1.413-0.792,2.148-1.006c0.009-0.19,0-0.372,0.03-0.568l1.812,0.283
				c0.128-0.006,0.244-0.045,0.372-0.045c0.253,0,0.512,0.012,0.771,0.033c0.461,0.027,0.934,0.116,1.384,0.217
				c0.22,0.057,0.452,0.11,0.646,0.185C713.186,367.328,713.495,367.444,713.382,367.444 M614.048,409.052
				c-0.149,0.274-0.036,0.122-0.009,0.14l0.184-0.08c0.14-0.065,0.309-0.116,0.482-0.167c0.36-0.092,0.803-0.116,1.273-0.107
				c0.967,0.048,2.124,0.342,3.306,0.827c0.589,0.232,1.193,0.539,1.797,0.851c0.208,0.122,0.884,0.399,1.315,0.589
				c0.494,0.199,0.97,0.426,1.514,0.565c2.068,0.723,4.442,0.943,6.614,0.821c2.693-0.182,4.948-0.738,6.977-1.288
				c-0.506-1.012-1.122-2.104-1.931-3.315c-1.357-2.026-2.69-4.112-3.99-6.239c-0.812,0.33-1.58,0.622-2.264,0.783
				c-1.071,0.253-2.044,0.399-3.142,0.229c-0.268,0.003-0.553-0.089-0.836-0.146c-0.342-0.086-0.443-0.068-1.003-0.238
				c-0.928-0.274-1.869-0.53-2.868-0.705c-1.973-0.366-4.121-0.539-6.421-0.116c-1.148,0.241-2.318,0.61-3.434,1.25
				c-0.553,0.33-1.089,0.699-1.589,1.151c-0.25,0.229-0.494,0.464-0.729,0.738c-0.259,0.312-0.411,0.476-0.791,1.086
				c-0.928,1.532-0.443,3.529,1.086,4.457C611.123,411.069,613.12,410.584,614.048,409.052 M585.183,403.61
				c-0.17,0.351-0.375,0.91-0.783,1.988c-0.375,0.997-0.967,2.261-1.553,3.472c-0.363,0.762-0.601,1.622-0.667,2.511
				c3.63,0.631,7.263,1.262,10.798,1.889c0.91,0.161,1.803,0.318,2.705,0.479c0.128-0.458,0.22-0.928,0.25-1.422l0.009-0.137
				c0.122-1.797,0.25-3.556,0.158-5.647c-0.086-1.979-0.351-4.624-1.755-7.141c-0.678-1.16-1.503-2.101-2.092-2.645l-1.494-1.392
				c-0.83-0.794-1.529-1.755-2.166-2.943l-0.125-0.235c-0.61-1.137-1.866-1.851-3.225-1.711c-1.803,0.188-3.109,1.8-2.925,3.597
				c0.187,1.797,0.613,3.746,1.41,5.594C584.556,401.741,585.412,403.217,585.183,403.61 M642.945,320.533
				c2.41-2.794,5.177-4.978,7.971-6.76c-6.564,0.753-13.952,3.112-20.578,8.911c-7.418,6.486-9.176,17.123-7.266,29.346
				c0.565-0.024,1.11-0.086,1.684-0.095c0.411-0.006,0.818-0.009,1.232-0.009c1.196,0,2.303,0.027,3.383,0.086
				c0.205,0.009,0.372,0.012,0.524,0.012h0.318c0.146-0.006,0.292-0.006,0.434-0.006h0.253l0.315-0.018
				c0.187-0.012,0.253-0.048,0.297-0.068c0.036-0.027,0.89-0.717,2.27-3.835l0.036-0.077l0.036-0.08
				c0.113-0.247,0.211-0.482,0.315-0.723c0.3-0.693,0.735-1.666,1.351-2.871C633.367,335.749,637.917,326.38,642.945,320.533
				 M652.957,254.518c-0.062,1.788,1.339,3.294,3.13,3.353l0.098,0.006c5.269,0.178,10.429,0.943,14.975,2.779
				c4.609,1.779,8.272,4.74,11.786,8.522c1.794,1.895,3.541,4.088,6.189,6.376c1.16,0.997,2.657,1.985,4.407,2.773
				c0.039,0.089,0.074,0.176,0.113,0.268c4.237-0.91,8.676-1.482,13.196-1.482c3.279,0,6.472,0.306,9.545,0.89
				c-0.196-0.315-0.36-0.664-0.574-0.967c-1.157-1.642-2.514-3.139-4.1-4.377c-2.538-2.02-5.534-3.335-8.504-4.002
				c-0.437-0.809-0.857-1.628-1.202-2.407c-0.958-2.145-1.556-4.341-1.562-5.903c0.039-1.535,0.223-2.348,1.812-3.404
				c1.619-0.94,4.139-1.485,6.748-1.598l0.057-0.003c1.532-0.062,2.847-1.208,3.077-2.782c0.262-1.776-0.967-3.431-2.749-3.692
				c-3.091-0.452-6.439-0.678-10.206,0.425c-1.866,0.601-3.865,1.675-5.454,3.386c-1.604,1.693-2.624,3.865-3.124,5.897
				c-0.298,1.253-0.428,2.443-0.491,3.612c-0.089-0.077-0.173-0.152-0.259-0.226c-4.424-3.916-10.039-7.543-16.061-9.114
				c-5.99-1.693-12.039-1.872-17.835-1.458C654.338,251.512,653.014,252.845,652.957,254.518 M635.292,266.669
				c0.509,1.723,2.315,2.705,4.038,2.196l0.03-0.009c3.832-1.131,7.706-1.241,11.247-0.226c3.556,0.985,6.802,3.044,9.67,5.677
				c2.874,2.636,5.377,5.844,7.563,9.286c0.786,1.235,1.482,2.538,2.184,3.829c3.175-1.681,7.108-3.538,11.521-5.213
				c-1.33-1.919-2.737-3.797-4.252-5.603c-3.136-3.737-6.668-7.248-10.828-10.155c-4.136-2.892-9.001-5.189-14.261-5.909
				c-5.255-0.774-10.607,0.202-15.127,2.243C635.614,263.441,634.828,265.089,635.292,266.669 M601.45,295.245
				c1.315,0.574,2.847-0.027,3.419-1.342l0.006-0.015c1.497-3.428,6.713-4.24,11.577-3.639c4.972,0.583,10.006,2.237,14.88,4.255
				c4.898,2.005,9.53,4.252,13.464,7.245c0.708,0.53,1.354,1.107,2.005,1.678c2.461-0.42,4.999-0.631,7.578-0.705
				c0.378-1.622,1.089-3.425,2.318-5.264c-1.235-1.166-2.458-2.386-3.582-3.624c-1.94-2.166-3.761-4.439-5.159-6.811
				c-1.428-2.294-2.288-4.549-1.961-6.129c0.143-0.78,0.556-1.452,1.285-2.032c0.723-0.574,1.785-0.887,2.77-0.922l0.3-0.009
				c1.226-0.048,2.285-0.958,2.467-2.217c0.205-1.416-0.774-2.728-2.19-2.934c-2.121-0.306-4.288-0.033-6.269,0.973
				c-1.976,0.985-3.752,2.812-4.6,5.017c-1.3,3.532-0.714,6.843,0.253,9.631c-1.925-0.768-3.859-1.476-5.796-2.05
				c-5.549-1.634-11.295-2.928-17.391-3.011c-3.041,0-6.204,0.286-9.352,1.47c-3.091,1.116-6.347,3.669-7.465,7.287
				C599.62,293.344,600.224,294.712,601.45,295.245 M574.743,316.617c1.101,1.416,3.139,1.675,4.558,0.577l0.024-0.021
				c2.19-1.696,4.451-2.847,6.808-3.267c2.371-0.417,4.96-0.187,7.674,0.414c2.708,0.589,5.475,1.517,8.286,2.553
				c3.591,1.282,7.239,1.631,10.477,1.806c2.229,0.098,4.395,0.158,6.534,0.208c1.214-1.535,2.577-2.99,4.118-4.341
				c3.312-2.892,6.959-5.275,10.884-7.132c-0.979,0.027-1.955,0.045-2.928,0.083c-6.335,0.265-12.646,0.896-18.507,1.181
				c-2.925,0.125-5.528,0.074-7.849-0.512c-3.088-0.809-6.284-1.574-9.679-1.979c-3.371-0.417-7.079-0.467-10.747,0.559
				c-3.681,1.038-6.843,3.181-9.316,5.525C573.889,313.407,573.716,315.29,574.743,316.617 M525.717,376.072
				c0.223,1.663,0.571,3.633,1.925,5.615c1.372,2.017,3.279,3.151,4.597,3.966c1.387,0.833,2.544,1.512,3.654,2.258
				c0.559,0.363,1.083,0.756,1.616,1.134l0.771,0.598l0.384,0.295l0.187,0.229c1.027,1.092,1.357,2.336,1.387,4.192
				c0.015,0.896-0.125,1.925-0.348,2.952c-0.104,0.515-0.247,1.038-0.405,1.541c-0.143,0.446-0.381,1.145-0.491,1.256
				c-0.931,0.934-1.642,2.151-1.958,3.529c-0.53,2.297,0.113,4.576,1.503,6.263c3.954-1.095,8.084-1.794,12.387-2.017
				c0.122-0.318,0.25-0.631,0.33-0.97l0.655-2.841c0.295-1.288,0.354-2.02,0.458-3.014c0.08-0.931,0.128-1.854,0.119-2.797
				c-0.012-1.875-0.164-3.785-0.646-5.763c-0.488-1.967-1.202-3.987-2.446-5.859c-1.247-1.824-2.85-3.55-4.746-4.621l-0.687-0.428
				l-0.55-0.274l-1.095-0.536c-0.744-0.33-1.482-0.672-2.226-0.964c-1.473-0.607-2.978-1.122-4.213-1.559
				c-1.279-0.464-2.02-0.768-2.431-1.101c-0.479-0.318-0.988-1.232-1.375-2.398l-0.048-0.143c-0.482-1.452-1.94-2.404-3.514-2.193
				C526.731,372.656,525.482,374.293,525.717,376.072 M475.268,415.003c-0.095,1.788,1.273,3.315,3.065,3.41
				c3.719,0.196,6.998-0.039,10.47-0.494c1.711-0.232,3.416-0.533,5.109-0.913c1.666-0.36,2.928-0.613,4.115-0.643
				c1.175-0.036,1.937,0.134,2.651,0.461c0.726,0.339,1.625,0.91,2.684,1.741c2.11,1.645,4.499,3.829,6.906,5.966l0.068,0.063
				c0.298,0.262,0.625,0.503,0.979,0.714c0.015,0.012,0.033,0.015,0.048,0.024c3.115-2.806,6.448-5.377,9.98-7.641
				c-0.446-1.616-1.476-3.077-3.026-4.011c-2.779-1.672-5.499-3.422-8.864-5.168c-1.678-0.857-3.69-1.756-6.088-2.226
				c-2.41-0.482-4.936-0.283-6.936,0.208c-1.999,0.455-3.806,1.22-5.219,1.797c-1.375,0.589-2.782,1.113-4.213,1.583
				c-2.812,0.931-5.93,1.69-8.647,2.05l-0.274,0.036C476.557,412.158,475.352,413.417,475.268,415.003 M452.164,476.707
				c1.214,1.684,2.746,2.437,4.041,2.955c1.318,0.485,2.565,0.732,3.77,0.89c2.413,0.289,4.695,0.211,6.96-0.054
				c2.261-0.271,4.49-0.75,6.713-1.485c1.113-0.369,2.223-0.806,3.335-1.336c0.553-0.265,1.113-0.562,1.666-0.881l0.791-0.47
				l0.479-0.262c0.262-0.14,0.571-0.268,0.848-0.408c1.226-4.579,2.999-9.584,5.308-14.743c-0.104,0.045-0.205,0.08-0.309,0.122
				c-3.874,1.714-7.647,3.374-11.693,6.248l-0.759,0.568c-0.223,0.17-0.286,0.244-0.437,0.375c-0.271,0.229-0.556,0.461-0.869,0.684
				c-0.616,0.449-1.3,0.875-2.026,1.264c-1.449,0.792-3.053,1.449-4.695,1.946c-1.637,0.497-3.335,0.839-4.898,0.925
				c-0.777,0.045-1.517,0.015-2.104-0.071c-0.586-0.086-0.913-0.265-0.934-0.17c-1.077-1.431-3.112-1.717-4.54-0.643
				C451.376,473.237,451.09,475.273,452.164,476.707 M421.881,525.429c0.134,1.788,1.696,3.127,3.478,2.99l0.295-0.021
				c3.862-0.295,7.7,1.717,11.119,4.692c0.568,0.491,1.119,1.006,1.66,1.544c1.259-0.485,2.544-0.961,3.871-1.428
				c2.446-0.866,4.651-1.848,6.745-2.883c-0.982-0.803-1.999-1.583-3.038-2.336c-0.205-0.149-0.387-0.312-0.592-0.452
				c-2.859-2.032-6.025-3.853-9.64-5.014c-3.559-1.175-7.715-1.613-11.598-0.44C422.752,522.507,421.762,523.885,421.881,525.429
				 M369.54,536.712c0.19,1.782,1.791,3.074,3.574,2.877l0.098-0.009c1.437-0.155,2.859-0.265,4.085-0.182
				c1.25,0.089,2.139,0.327,3.335,0.851c2.479,1.172,5.987,2.755,9.176,3.585c0.759,0.244,1.702,0.446,2.684,0.628
				c0.97,0.226,1.925,0.226,2.892,0.324c1.892,0.06,3.776-0.057,5.451-0.295c3.41-0.461,6.308-1.053,8.179-0.75
				c0.952,0.089,1.577,0.47,2.291,0.857c0.55,0.425,1.137,0.949,1.711,1.622c0.131,0.152,0.265,0.265,0.393,0.437
				c0.092,0.11,0.256,0.321,0.423,0.533c2.85-1.91,6.079-3.853,9.676-5.769c-0.113-0.119-0.226-0.238-0.351-0.345
				c-0.071-0.057-0.179-0.158-0.309-0.289c-0.369-0.369-0.925-0.97-1.431-1.491c-1.342-1.431-3.103-2.785-5.109-3.859
				c-2.071-0.994-4.46-1.675-6.656-1.675c-4.407-0.054-7.62,1.187-10.354,1.738c-1.398,0.339-2.639,0.509-3.868,0.604
				c-0.592-0.021-1.211,0.074-1.785-0.027c-0.562-0.048-1.16-0.095-1.91-0.256c-2.937-0.512-5.24-1.306-8.548-2.482
				c-1.723-0.598-3.951-0.961-5.829-0.869c-1.901,0.065-3.594,0.381-5.237,0.711C370.501,533.519,369.356,535.037,369.54,536.712
				 M403.374,551.553c-1.065,0.324-2.107,0.684-3.109,1.08c-3.603,1.413-7.144,2.452-10.735,2.657
				c-1.818,0.122-3.704,0.003-5.987-0.068c-2.258-0.068-4.811,0.083-7.141,0.669c-1.532,0.387-2.598,1.845-2.44,3.469
				c0.173,1.785,1.767,3.094,3.553,2.919l0.042-0.006c1.782-0.173,3.437-0.033,5.329,0.286c0.134,0.024,0.298,0.054,0.431,0.074
				c1.785,0.315,3.859,0.729,6.046,0.896c2.839,0.244,5.65,0.065,8.388-0.318c0.577-2.115,1.675-4.1,3.321-5.722
				c2.243-2.211,5.094-4.725,8.626-7.367C407.533,550.455,405.403,550.926,403.374,551.553 M414.243,579.391l1.163-1.333
				c0.051-0.063,0.104-0.122,0.155-0.181c-1.755,0.863-3.695,1.321-5.624,1.321c-3.181,0-6.141-1.187-8.411-3.213
				c-2.821,1.839-7.51,2.422-12.872,4.511c-2.681,1.056-5.478,2.672-7.671,4.811c-1.193,0.991-2.041,2.22-3.014,3.347l-1.199,1.809
				l-1.027,1.607c-1.083,1.889-2.306,3.41-3.591,4.561c-1.282,1.122-2.761,1.803-4.826,2.324c-4.195,0.955-9.474,1.574-14.362,2.895
				c-4.948,1.265-9.727,3.017-14.341,5.008c-1.556,0.675-2.351,2.461-1.767,4.082c0.61,1.684,2.47,2.556,4.157,1.946l0.057-0.021
				c4.448-1.607,8.947-2.952,13.517-3.832c4.612-0.958,9.09-1.151,14.478-2.017c2.696-0.473,5.903-1.58,8.426-3.538
				c2.502-1.919,4.422-4.213,5.915-6.463l0.58-0.815l0.452-0.598l0.89-1.196c0.687-0.649,1.253-1.455,2.005-1.952
				c1.381-1.196,2.949-1.976,4.835-2.595c1.877-0.631,4.07-1.062,6.579-1.619c2.479-0.553,5.38-1.321,8.182-2.818
				C409.711,583.941,412.341,581.822,414.243,579.391 M433.375,582.718c2.217-1.729,5.243-3.056,8.697-5.118
				c0.86-0.515,1.714-1.077,2.589-1.696c0.919-0.681,1.785-1.389,2.577-2.124c1.583-1.464,2.964-2.996,4.243-4.561
				c0.25-0.312,0.476-0.625,0.72-0.937c-1.726,0.289-3.44,0.562-5.139,0.83c-5.204,0.824-10.265,1.625-15.38,2.892
				c-1.485,1.098-3.041,2.324-4.532,3.817c-3.121,3.056-5.243,7.019-6.466,10.807l-0.158,0.491l-0.003,0.027
				c0.003,0.205-0.244,1.003-0.467,1.473c-0.244,0.536-0.547,1.026-0.896,1.452c-0.678,0.878-1.568,1.44-2.693,1.812l-0.262,0.086
				c-1.467,0.482-2.419,1.961-2.19,3.541c0.259,1.773,1.898,2.999,3.672,2.743c2.336-0.336,4.776-1.413,6.558-3.103
				c0.91-0.824,1.69-1.761,2.333-2.758c0.658-1.065,1.137-1.901,1.613-3.407l-0.161,0.518
				C429.414,586.669,431.119,584.396,433.375,582.718 M474.406,562.646c-1.244,0.497-2.505,0.967-3.797,1.384
				c-4.529,1.461-8.894,2.473-13.154,3.3c-0.756,0.729-1.514,1.544-2.172,2.461c-1.401,1.943-2.407,4.094-2.975,6.097
				c-0.363,1.027-0.506,1.997-0.759,2.996l-0.488,2.16c-0.431,1.241-0.863,2.407-1.571,3.285c-1.297,1.824-4.1,3.127-7.54,5.174
				c-3.392,1.988-6.573,5.162-8.539,8.608c-0.806,1.428-0.428,3.276,0.931,4.252c1.458,1.041,3.49,0.705,4.532-0.753l0.021-0.03
				c1.797-2.508,3.901-4.297,6.695-5.674c1.384-0.717,2.972-1.345,4.758-2.258c1.764-0.899,3.725-2.151,5.359-3.904
				c1.666-1.758,2.708-3.844,3.562-5.867l0.94-2.922c0.25-0.687,0.417-1.464,0.714-2.071c0.5-1.348,1.172-2.354,1.892-3.208
				c0.735-0.839,1.654-1.506,3.136-2.526c1.452-0.994,3.413-2.473,4.939-4.365c1.529-1.872,2.693-3.981,3.446-5.969
				C474.361,562.747,474.379,562.705,474.406,562.646 M550.187,629.182c-5.975-0.134-11.072-4.427-12.175-10.331
				c-1.006-5.4-3.303-9.959-5.014-9.959c-0.262,0-0.568,0.036-0.916,0.104c-1.598,0.324-5.844,1.181-7.159,8.861
				c-0.925,5.424-5.189,9.506-10.476,10.349c3.398,6.567,10.238,11.06,18.141,11.06
				C540.094,639.266,546.634,635.207,550.187,629.182 M591.093,525.239c0-2.342-0.467-4.573-1.297-6.62
				c-2.208,1.758-4.939,2.743-7.831,2.743c-1.639,0-3.243-0.315-4.767-0.934c-0.455-0.187-1.143-0.408-1.857-0.408
				c-0.556,0-1.446,0.122-2.743,1.166c-1.961,1.571-3.859,5.484-3.568,8.807c0.17,1.901,0.97,2.49,1.702,2.889
				c3.672,2.008,6.022,5.594,6.495,9.575C585.151,540.729,591.093,533.683,591.093,525.239 M565.828,512.757
				c3.338-2.681,6.644-3.544,9.512-3.544c2.336,0,4.383,0.574,5.93,1.202c0.232,0.095,0.467,0.137,0.693,0.137
				c1.154,0,2.11-1.125,1.797-2.368c-1.574-6.23-6.269-8.156-11.47-8.156c-5.51,0-11.589,2.16-15.124,3.648
				c-0.244,0.101-0.488,0.149-0.723,0.149c-1.151,0-2.098-1.125-1.791-2.38c1.61-6.599,6.656-8.941,10.343-9.768
				c1.616-0.363,1.919-2.526,0.518-3.413c-2.365-1.497-5.112-2.47-8.069-2.47c-3.576,0-7.468,1.416-11.402,5.037
				c-2.839,2.612-4.636,5.528-5.805,8.304c4.609,9.283,7.055,22.444,3.139,37.44c1.226,0.786,2.452,1.714,3.651,2.856
				c5.436,5.159,11.122,6.513,15.594,6.513c0.789,0,1.538-0.042,2.243-0.11c1.791-0.181,2.264-2.603,0.687-3.466
				C554.016,536.066,557.563,519.398,565.828,512.757 M744.443,558.578c-6.335-3.749-13.839-11.949-6.144-28.508
				c4.651-10,11.461-13.059,18.055-13.059c7.064,0,13.874,3.508,17.504,5.749c0.309,0.19,0.64,0.277,0.961,0.277
				c0.985,0,1.898-0.803,1.88-1.904c-0.247-14.6-11.134-17.198-18.855-17.198c-0.333,0-0.658,0.006-0.979,0.015h-0.057
				c-1.625,0-2.47-1.943-1.336-3.13c2.163-2.264,4.252-5.127,5.87-7.796c0.666-1.101,1.476-1.857,2.333-2.374
				c1.395-0.836,1.062-2.91-0.5-3.377c-3.368-1-6.483-1.431-9.349-1.431c-15.672,0-23.913,12.997-26.359,17.641
				c-0.33,0.625-0.961,0.973-1.619,0.973c-0.289,0-0.58-0.068-0.857-0.202c-14.58-7.189-28.171-8.516-36.226-8.516
				c-2.336,0-4.207,0.113-5.502,0.223c-0.057,0.006-0.11,0.009-0.164,0.009c-1.024,0-1.889-0.851-1.848-1.895
				c0.405-10.128,4.609-17.266,5.177-18.186c0.039-0.062,0.08-0.122,0.125-0.179c30.305-37.496,20.411-58.175,4.151-87.784
				c-1.003,0.101-2.005,0.19-3.014,0.19c-3.728,0-7.314-0.678-10.661-2.023c-4.252-1.705-7.215-5.269-8.331-9.387
				c-1.785,0.803-3.746,1.238-5.772,1.238c-1.241,0-2.479-0.161-3.678-0.482c-2.345-0.625-4.398-1.803-6.052-3.362
				c-2.258,2.047-4.764,3.752-7.388,5.025c-3.904,1.91-8.23,2.958-12.568,3.103c3.3,6.772,7.159,13.44,11.31,19.65
				c11.524,17.228,1.217,25.318,1.217,25.318c-2.615,1.83-6.873,2.574-12.402,2.574c-16.32,0-43.676-6.495-72.318-10.664
				c-2.404-0.348-4.755-0.518-7.052-0.518c-34.396,0-57.095,37.377-63.019,60.713c-6.323,24.892-10.926,52.022-45.072,64.096
				c-19.435,6.867-30.941,15.564-37.246,21.786c-1.294,1.276-0.238,3.208,1.276,3.208c0.28,0,0.58-0.065,0.887-0.217
				c20.703-10.375,37.657-8.364,56.467-14.431c17.817-5.748,30.605-22.03,34.378-27.302c0.372-0.515,0.946-0.783,1.526-0.783
				c0.482,0,0.961,0.179,1.327,0.553c7.558,7.715,4.044,24.636,2.806,29.591c-0.205,0.827,0.205,1.675,0.952,2.086
				c17.495,9.53,13.865,23.497,12.518,27.192c-0.211,0.58-0.696,1.003-1.291,1.16c-22.2,5.909-13.833,22.818-8.605,30.516
				c0.381,0.559,0.961,0.818,1.532,0.818c0.839,0,1.669-0.556,1.836-1.538c0.994-5.823,4.359-15.35,15.674-17.632
				c1.077-0.217,2.095-0.321,3.053-0.321c11.003,0,14.618,13.327,15.639,18.784c0.173,0.916,0.982,1.532,1.836,1.532
				c0.286,0,0.574-0.068,0.845-0.217c9.227-5.017,5.159-19.087,2.791-25.309c-0.47-1.241,0.491-2.529,1.735-2.529
				c0.134,0,0.271,0.015,0.411,0.048c8.569,1.94,12.172,7.513,13.669,12.289c0.28,0.89,1.038,1.327,1.794,1.327
				c0.792,0,1.583-0.482,1.812-1.431c5.957-24.407-15.889-26.913-25.113-26.913c-0.794,0-1.497,0.018-2.08,0.045h-0.077
				c-0.994,0-1.77-0.788-1.845-1.788c-0.848-11.31-8.718-14.847-11.818-15.805c-0.75-0.232-1.288-0.89-1.321-1.675
				c-0.286-6.939,0.717-18.195,0.854-19.682c0.012-0.119,0.036-0.223,0.074-0.339c6.644-21.069-2.505-34.554-4.6-37.267
				c-0.274-0.351-0.405-0.783-0.39-1.226c0.681-19.489,7.233-27.808,7.831-28.531c0.03-0.036,0.063-0.071,0.095-0.107
				c7.025-7.555,15.666-10.232,25.58-10.232c14.017,0,30.575,5.356,48.684,9.84c19.849,4.909,32.682,5.793,39.335,5.793
				c1.217,0,2.226-0.03,3.032-0.071c0.033,0,0.065-0.003,0.095-0.003c1.16,0,2.05,1.038,1.827,2.196
				c-1.053,5.49-2.532,19.394,6.272,30.84c9.938,12.913,49.288,17.972,58.291,18.971c1.026,0.113,1.726,1.044,1.622,2.071
				c-2.969,28.576,13.407,33.185,23.58,33.354h0.039C745.395,562.045,746.088,559.551,744.443,558.578 M782.903,540.416
				c0-2.975-0.565-5.814-1.553-8.444c-1.967,1.181-4.219,1.872-6.531,1.872c-2.342,0-4.633-0.652-6.635-1.886
				c-4.261-2.627-8.572-4.136-11.83-4.139h-0.021c-1.663,0-5.085,0.033-8.233,6.808c-4.942,10.634-0.693,13.145,1.845,14.648
				c4.906,2.901,7.281,8.76,5.781,14.249c-0.065,0.232-0.17,0.443-0.244,0.667c1.11,0.158,2.232,0.265,3.383,0.265
				C772.141,564.455,782.903,553.693,782.903,540.416 M822.268,386.263c-0.274-0.143-0.556-0.208-0.83-0.208
				c-1.241,0-2.33,1.321-1.735,2.586c2.041,4.311-0.773,9.271-3.222,12.434c-0.384,0.497-0.928,0.726-1.467,0.726
				c-0.836,0-1.654-0.553-1.836-1.511c-1.535-8.224-6.671-9.786-10.36-9.786c-0.164,0-0.324,0.003-0.479,0.006
				c-1.467,0.054-2.291,1.714-1.458,2.916c3.541,5.1,0.208,9.203-1.803,11.015c-0.36,0.327-0.812,0.491-1.265,0.491
				c-0.405,0-0.809-0.131-1.151-0.405c-1.654-1.336-5.037-4.052-9.688-7.76c-3.243-2.586-4.338-5.891-4.606-8.635
				c-0.101-1.044-0.973-1.663-1.863-1.663c-0.556,0-1.116,0.241-1.503,0.771c-2.202,3.02-3.059,5.32-3.389,6.561
				c-0.17,0.652-0.64,1.16-1.285,1.339c-7.373,2.068-16.409,3.847-26.017,3.847c-14.166,0-29.567-3.874-42.656-16.427
				c-0.03-0.033-0.063-0.059-0.095-0.089c-1.357,0.896-2.767,1.681-4.216,2.377c6.668,12.229,12.562,23.973,14.699,36.556
				c9.426,3.835,18.37,5.424,26.258,5.424c7.608,0,14.237-1.476,19.355-3.826c7.48-3.443,12.684-6.004,15.073-7.204
				c0.274-0.137,0.568-0.205,0.857-0.205c0.559,0,1.098,0.247,1.437,0.72c4.347,6.094,14.193,10.158,24.021,10.158
				c10.768,0,21.512-4.88,24.97-17.314C832,394.802,827.061,388.786,822.268,386.263 M792.567,384.395
				c2.276-2.812,5.68-4.549,9.382-4.683c0.283-0.012,0.574-0.018,0.869-0.018c2.574,0,5.284,0.452,7.885,1.467
				c1.3-2.038,3.169-3.624,5.302-4.645c-3.097-5.064-8.664-8.456-15.035-8.456c-6.501,0-12.164,3.523-15.222,8.757
				C788.955,378.268,791.463,380.976,792.567,384.395 M836.764,367.744c0.086-2.214-0.253-4.642-1.449-6.817
				c-1.178-2.178-3.13-3.856-5.168-4.939c-4.136-2.142-8.483-2.666-12.637-2.853c-3.142-0.128-6.236,0.018-9.304,0.309
				c0.295-1.044,0.491-2.11,0.491-3.157c0.027-2.737-0.842-5.13-1.883-7.189c-0.14-0.283-0.351-0.503-0.556-0.723
				c-2.684,7.867-7.019,16.049-17.463,16.049c-1.839,0-3.695-0.306-5.597-0.919c0.479,1.08,0.875,2.196,1.178,3.335
				c0.366,1.354,0.55,2.72,0.652,4.085c2.714,0.116,5.451-0.006,8.191-0.458c2.282-0.428,4.654-1.068,6.915-2.16
				c2.059-0.583,4.148-1.122,6.216-1.577c3.716-0.8,7.474-1.419,11.176-1.595c3.681-0.196,7.415,0.039,10.438,1.288
				c3.044,1.214,4.779,3.77,4.91,7.278v0.048c0.042,1.003,0.848,1.827,1.869,1.866C835.818,369.657,836.722,368.821,836.764,367.744
				 M864.575,303.377c-0.247-0.783-0.628-1.467-1.128-2.071c-0.91-1.104-2.193-1.833-3.395-2.154
				c-0.104-0.03-0.211-0.074-0.315-0.098c-2.651-0.568-4.594,0.051-6.308,0.61c-3.431,1.232-6.073,3.014-8.626,4.847
				c-0.574,0.405-1.401,1.065-1.732,1.226c-0.414,0.277-0.833,0.536-1.306,0.717c-0.89,0.434-1.937,0.681-3.053,0.89
				c-2.285,0.366-4.99,0.357-7.935,0.366c-2.949,0.009-6.189,0.071-9.563,0.646c-1.193,0.202-2.407,0.494-3.618,0.842
				c0.116-0.182,0.247-0.354,0.36-0.536l1.505-2.731c0.545-1.11,1.461-2.113,2.818-3.038c2.636-1.931,6.614-3.211,10.798-4.874
				c2.092-0.836,4.314-1.767,6.501-3.234c2.172-1.425,4.299-3.511,5.528-6.132c0.66-1.41,0.226-3.136-1.104-4.05
				c-1.479-1.012-3.493-0.637-4.508,0.839l-0.14,0.205c-1.601,2.333-4.817,3.594-8.84,4.534c-3.93,1.035-8.462,1.645-13.27,4.07
				c-1.202,0.553-2.38,1.398-3.553,2.22c-0.64,0.574-1.276,1.16-1.886,1.779c0.155-2.464,0.208-4.904,0.039-7.278l-0.268-4.535
				c-0.155-1.381,0.03-2.589,0.071-3.871c0.336-2.437,1.015-4.567,2.392-6.555c1.351-2.005,3.496-3.928,5.876-6.207
				c2.368-2.255,4.874-5.046,6.567-8.334c1.729-3.303,2.425-6.844,2.865-10.253c0.202-1.625-0.845-3.187-2.473-3.568
				c-1.741-0.411-3.484,0.672-3.892,2.416l-0.063,0.274c-0.64,2.729-1.428,5.35-2.847,7.501c-1.41,2.16-3.288,3.945-5.618,5.787
				c-2.294,1.851-5.115,3.829-7.608,6.775c-2.52,2.919-4.234,6.73-5.046,10.426c-0.295,1.827-0.669,3.71-0.66,5.463l-0.173,4.841
				c-0.024,1.086-0.125,2.139-0.229,3.193c7.397,1.625,11.098,5.71,12.741,8.4c2.422,3.972,4.237,10.691-0.318,20.417
				c0.997-0.351,1.999-0.681,2.969-1.089c3.44-1.491,4.927-2.428,7.361-3.062c0.336-0.098,0.723-0.143,1.074-0.229
				c2.065-0.491,4.285-0.821,6.742-1.071c2.877-0.312,6.037-0.553,9.459-1.461c1.708-0.494,3.475-1.131,5.127-2.142
				c0.842-0.464,1.619-1.033,2.357-1.66c0.86-0.684,1.137-0.985,1.705-1.482c1.994-1.794,4.148-3.475,6.15-4.421
				c0.964-0.497,1.982-0.726,2.226-0.687h0.006c0.131,1.288,1.021,2.431,2.348,2.797c1.726,0.476,3.514-0.536,3.99-2.264
				C865,304.992,864.798,304.145,864.575,303.377 M747.24,322.544c0,0,3.877-4.157,10.078-6.573c0,0-6.543-14.258-14.264-3.576
				C743.053,312.395,739.878,318.075,747.24,322.544"/>
			<path fill="#DABE42" d="M50.533,525.062c-0.399-1.015-0.595-2.101-0.515-3.202c0.071-0.913,0.312-1.824,0.744-2.69
				l174.365-348.877c0-0.003,0.003-0.003,0.003-0.006c0.241-0.476,0.527-0.91,0.851-1.309c0.06-0.074,0.134-0.137,0.196-0.208
				c0.292-0.327,0.598-0.631,0.937-0.899c0.134-0.107,0.277-0.193,0.417-0.292c0.303-0.205,0.61-0.387,0.937-0.545
				c0.095-0.048,0.173-0.116,0.274-0.158L473.691,61.063c2.226-0.964,4.826-0.744,6.858,0.595c2.05,1.348,3.276,3.621,3.276,6.067
				v15.731c0,64.959,53.608,117.627,118.91,116.089c63.394-1.497,113.325-54.855,113.325-118.264v-13.41
				c0-1.324,0.289-2.654,0.964-3.794c1.982-3.324,5.948-4.392,9.167-3.011l244.374,105.565c0.887,0.28,1.717,0.723,2.443,1.324
				c0.018,0.012,0.036,0.021,0.053,0.036c0.318,0.268,0.607,0.577,0.881,0.904c0.039,0.048,0.092,0.086,0.134,0.14
				c0.304,0.384,0.571,0.8,0.797,1.259l25.612,51.243L860.051,299.15c-0.104-0.03-0.211-0.071-0.315-0.095
				c-2.651-0.568-4.594,0.051-6.305,0.607c-3.434,1.232-6.073,3.017-8.629,4.85c-0.574,0.405-1.398,1.062-1.732,1.223
				c-0.411,0.28-0.833,0.539-1.306,0.717c-0.89,0.437-1.937,0.684-3.053,0.89c-2.285,0.366-4.987,0.357-7.935,0.366
				s-6.189,0.074-9.56,0.649c-1.196,0.199-2.41,0.494-3.618,0.839c0.113-0.178,0.244-0.354,0.357-0.533l1.509-2.732
				c0.541-1.11,1.458-2.113,2.815-3.041c2.639-1.928,6.617-3.207,10.798-4.874c2.092-0.836,4.314-1.764,6.501-3.234
				c2.172-1.422,4.302-3.508,5.528-6.129c0.664-1.413,0.226-3.139-1.101-4.05c-1.479-1.012-3.496-0.637-4.511,0.839l-0.14,0.202
				c-1.601,2.333-4.817,3.594-8.837,4.538c-3.933,1.033-8.465,1.642-13.27,4.07c-1.205,0.55-2.383,1.395-3.556,2.22
				c-0.64,0.571-1.274,1.157-1.886,1.776c0.155-2.464,0.208-4.904,0.039-7.278l-0.268-4.532c-0.152-1.381,0.03-2.589,0.074-3.871
				c0.333-2.437,1.015-4.567,2.389-6.555c1.354-2.008,3.496-3.928,5.876-6.207c2.368-2.258,4.877-5.046,6.567-8.337
				c1.729-3.3,2.428-6.843,2.865-10.25c0.202-1.625-0.845-3.187-2.473-3.567c-1.741-0.411-3.484,0.669-3.892,2.413l-0.063,0.277
				c-0.64,2.728-1.428,5.35-2.844,7.498c-1.413,2.163-3.291,3.948-5.621,5.79c-2.291,1.851-5.115,3.829-7.608,6.772
				c-2.52,2.922-4.231,6.733-5.046,10.429c-0.292,1.824-0.667,3.707-0.658,5.463l-0.176,4.841c-0.024,1.083-0.125,2.139-0.226,3.19
				c-1.982-0.434-4.175-0.732-6.727-0.732c-3.449,0-7.147,0.467-10.697,1.348c-0.976,0.244-2.065,0.366-3.234,0.366
				c-2.333,0-4.576-0.479-6.257-0.97c-6.882-11.64-19.251-17.995-35.271-17.998c-7.626,0-14.413,1.401-18.531,2.487
				c-1.19-0.324-2.401-0.589-3.63-0.821c-0.193-0.318-0.36-0.667-0.571-0.967c-1.16-1.642-2.517-3.139-4.1-4.377
				c-2.541-2.023-5.537-3.335-8.507-4.005c-0.437-0.806-0.857-1.628-1.202-2.404c-0.958-2.145-1.553-4.341-1.559-5.906
				c0.036-1.532,0.22-2.348,1.809-3.401c1.619-0.943,4.142-1.485,6.751-1.598l0.054-0.003c1.532-0.065,2.847-1.211,3.077-2.782
				c0.262-1.779-0.967-3.431-2.746-3.692c-3.094-0.455-6.442-0.681-10.209,0.423c-1.866,0.604-3.865,1.678-5.454,3.386
				c-1.601,1.693-2.624,3.868-3.124,5.9c-0.298,1.25-0.428,2.443-0.491,3.609c-0.086-0.074-0.173-0.149-0.259-0.226
				c-4.422-3.913-10.039-7.543-16.058-9.111c-5.992-1.696-12.039-1.872-17.838-1.461c-1.628,0.122-2.955,1.458-3.011,3.127
				c-0.062,1.791,1.339,3.297,3.133,3.353l0.098,0.006c5.266,0.181,10.429,0.946,14.972,2.782c4.612,1.776,8.272,4.74,11.786,8.522
				c1.794,1.895,3.541,4.085,6.189,6.376c1.163,0.997,2.66,1.985,4.407,2.77c0.039,0.089,0.074,0.178,0.116,0.268
				c-4.305,0.922-8.379,2.199-12.113,3.618c-1.33-1.922-2.737-3.797-4.252-5.606c-3.133-3.737-6.668-7.245-10.828-10.152
				c-4.136-2.895-9.001-5.189-14.261-5.909c-5.255-0.774-10.607,0.202-15.127,2.243c-1.461,0.652-2.249,2.303-1.785,3.88
				c0.509,1.723,2.318,2.705,4.041,2.199l0.027-0.009c3.835-1.131,7.706-1.241,11.25-0.229c3.553,0.985,6.799,3.047,9.67,5.68
				c2.874,2.633,5.374,5.841,7.564,9.286c0.783,1.235,1.479,2.535,2.181,3.829c-5.109,2.705-8.319,4.942-8.655,5.18l-0.256,0.181
				l-0.244,0.193c-1.827,1.455-3.166,2.978-4.169,4.481c-1.235-1.169-2.461-2.389-3.582-3.627c-1.943-2.163-3.764-4.436-5.162-6.808
				c-1.425-2.294-2.285-4.549-1.961-6.132c0.143-0.777,0.556-1.452,1.288-2.029c0.723-0.574,1.782-0.89,2.767-0.925l0.3-0.009
				c1.226-0.045,2.285-0.958,2.467-2.217c0.205-1.413-0.774-2.729-2.187-2.931c-2.122-0.309-4.291-0.036-6.272,0.97
				c-1.976,0.985-3.752,2.812-4.6,5.019c-1.297,3.529-0.714,6.841,0.253,9.631c-1.922-0.771-3.859-1.476-5.796-2.053
				c-5.546-1.631-11.295-2.928-17.391-3.008c-3.038,0-6.204,0.283-9.349,1.47c-3.091,1.116-6.35,3.666-7.468,7.284
				c-0.387,1.247,0.217,2.615,1.443,3.151c1.318,0.571,2.847-0.027,3.422-1.342l0.006-0.015c1.497-3.431,6.71-4.24,11.574-3.639
				c4.972,0.58,10.009,2.238,14.88,4.255c4.901,2.005,9.53,4.249,13.467,7.242c0.705,0.533,1.354,1.107,2.002,1.681
				c-4.469,0.768-8.724,2.107-12.696,3.987c-0.976,0.024-1.952,0.042-2.928,0.083c-6.332,0.265-12.646,0.896-18.504,1.178
				c-2.928,0.125-5.531,0.077-7.852-0.509c-3.088-0.809-6.281-1.577-9.679-1.982c-3.371-0.414-7.078-0.467-10.747,0.562
				c-3.681,1.038-6.844,3.178-9.316,5.522c-1.187,1.134-1.363,3.017-0.333,4.344c1.098,1.419,3.136,1.678,4.555,0.58l0.027-0.021
				c2.187-1.696,4.448-2.847,6.808-3.27c2.371-0.414,4.96-0.185,7.671,0.417c2.708,0.586,5.478,1.518,8.286,2.55
				c3.591,1.285,7.242,1.631,10.479,1.809c2.229,0.098,4.392,0.155,6.531,0.205c-7.23,9.138-8.792,21.369-6.766,34.583
				c-2.345,0.547-4.627,1.19-6.775,2.035c-6.939,2.66-13.009,7.022-17.487,12.589c-4.642,5.799-3.978,14.228,1.497,19.206
				c2.592,2.359,5.951,3.657,9.453,3.657c3.951,0,7.742-1.675,10.399-4.597c0.548-0.601,1.196-1.154,1.979-1.675l9.756-2.761
				c3.026,6.79,6.582,13.452,10.423,19.724c-0.809,0.333-1.58,0.622-2.264,0.783c-1.071,0.253-2.044,0.402-3.139,0.229
				c-0.271,0.003-0.556-0.089-0.836-0.146c-0.345-0.086-0.446-0.065-1.003-0.238c-0.931-0.271-1.869-0.527-2.868-0.705
				c-1.973-0.363-4.124-0.539-6.421-0.113c-1.152,0.238-2.321,0.607-3.437,1.25c-0.55,0.327-1.089,0.696-1.589,1.151
				c-0.25,0.229-0.494,0.464-0.729,0.738c-0.259,0.309-0.411,0.476-0.791,1.086c-0.928,1.532-0.443,3.526,1.089,4.457
				c1.529,0.928,3.526,0.443,4.457-1.086c-0.152,0.274-0.039,0.122-0.009,0.14l0.182-0.083c0.14-0.062,0.312-0.116,0.482-0.164
				c0.36-0.095,0.803-0.116,1.273-0.11c0.967,0.048,2.124,0.345,3.306,0.83c0.592,0.232,1.196,0.536,1.797,0.851
				c0.208,0.122,0.887,0.399,1.315,0.586c0.494,0.202,0.97,0.428,1.515,0.568c2.068,0.723,4.442,0.94,6.617,0.821
				c2.69-0.185,4.945-0.738,6.974-1.291c1.836,3.669,1.892,6.073,1.449,7.284c-0.878,0.211-2.58,0.479-5.582,0.479
				c-8.938,0-22.807-2.374-37.684-5.017c0.128-0.455,0.217-0.925,0.25-1.419l0.009-0.137c0.122-1.8,0.25-3.556,0.155-5.65
				c-0.086-1.979-0.351-4.621-1.753-7.138c-0.681-1.163-1.503-2.101-2.095-2.648l-1.494-1.389c-0.83-0.795-1.529-1.756-2.166-2.946
				l-0.125-0.235c-0.61-1.137-1.866-1.851-3.225-1.708c-1.8,0.184-3.109,1.797-2.922,3.597c0.184,1.794,0.613,3.746,1.407,5.594
				c0.83,1.875,1.687,3.35,1.455,3.743c-0.17,0.351-0.375,0.908-0.78,1.988c-0.375,0.997-0.967,2.258-1.556,3.472
				c-0.363,0.759-0.601,1.622-0.664,2.508c-6.394-1.107-12.878-2.196-19.575-3.169c-2.871-0.417-5.769-0.631-8.611-0.631
				c-1.035,0-2.053,0.048-3.071,0.101c0.122-0.315,0.25-0.631,0.327-0.967l0.655-2.842c0.295-1.291,0.354-2.023,0.458-3.017
				c0.08-0.928,0.128-1.854,0.119-2.794c-0.012-1.874-0.161-3.788-0.646-5.766c-0.488-1.967-1.202-3.987-2.446-5.856
				c-1.247-1.827-2.85-3.553-4.746-4.621l-0.687-0.431l-0.55-0.274l-1.095-0.533c-0.744-0.333-1.482-0.675-2.226-0.964
				c-1.473-0.61-2.978-1.122-4.213-1.562c-1.279-0.461-2.02-0.768-2.428-1.101c-0.479-0.315-0.988-1.229-1.378-2.398l-0.048-0.14
				c-0.482-1.455-1.94-2.404-3.511-2.196c-1.782,0.235-3.032,1.872-2.797,3.654c0.223,1.66,0.574,3.63,1.928,5.612
				c1.372,2.017,3.276,3.151,4.597,3.966c1.384,0.836,2.541,1.512,3.651,2.258c0.562,0.363,1.083,0.756,1.616,1.134l0.774,0.598
				l0.384,0.298l0.185,0.226c1.026,1.092,1.357,2.336,1.386,4.192c0.015,0.899-0.125,1.928-0.345,2.952
				c-0.104,0.515-0.247,1.038-0.408,1.544c-0.143,0.443-0.381,1.146-0.491,1.256c-0.928,0.931-1.642,2.151-1.958,3.526
				c-0.53,2.3,0.113,4.579,1.505,6.266c-6.177,1.714-11.914,4.398-17.198,7.787c-0.446-1.616-1.476-3.074-3.026-4.011
				c-2.779-1.669-5.499-3.422-8.864-5.168c-1.678-0.854-3.69-1.755-6.088-2.226c-2.41-0.479-4.936-0.283-6.936,0.208
				c-1.999,0.458-3.806,1.223-5.219,1.8c-1.372,0.586-2.782,1.113-4.213,1.58c-2.812,0.934-5.93,1.693-8.647,2.053l-0.274,0.033
				c-1.517,0.202-2.725,1.461-2.809,3.047c-0.095,1.785,1.276,3.312,3.065,3.407c3.719,0.199,6.998-0.036,10.47-0.494
				c1.711-0.232,3.416-0.53,5.112-0.91c1.663-0.36,2.925-0.613,4.112-0.643c1.175-0.039,1.937,0.134,2.651,0.458
				c0.726,0.339,1.625,0.913,2.684,1.741c2.11,1.648,4.499,3.829,6.909,5.969l0.065,0.059c0.301,0.262,0.625,0.503,0.979,0.717
				c0.015,0.012,0.033,0.015,0.048,0.021c-11.256,10.137-19.784,23.274-25.288,35.583c-0.101,0.045-0.202,0.083-0.309,0.122
				c-3.871,1.717-7.647,3.374-11.69,6.248l-0.759,0.568c-0.223,0.17-0.289,0.247-0.44,0.375c-0.268,0.232-0.556,0.464-0.869,0.687
				c-0.616,0.446-1.3,0.875-2.023,1.265c-1.452,0.788-3.056,1.449-4.695,1.943c-1.637,0.497-3.338,0.839-4.901,0.928
				c-0.777,0.042-1.517,0.012-2.104-0.074c-0.583-0.083-0.913-0.265-0.931-0.167c-1.08-1.434-3.112-1.72-4.543-0.643
				c-1.431,1.074-1.72,3.109-0.646,4.54c1.217,1.684,2.746,2.437,4.044,2.955c1.315,0.485,2.562,0.732,3.767,0.89
				c2.413,0.292,4.698,0.211,6.96-0.054c2.261-0.268,4.49-0.747,6.713-1.485c1.113-0.369,2.223-0.803,3.335-1.336
				c0.556-0.265,1.113-0.559,1.669-0.881l0.788-0.47l0.482-0.262c0.259-0.14,0.568-0.268,0.848-0.405
				c-0.089,0.324-0.184,0.66-0.265,0.982c-0.411,1.61-0.812,3.231-1.214,4.853c-3.374,13.598-6.51,26.062-14.124,35.907
				l-19.156,10.587c-0.202-0.146-0.387-0.309-0.589-0.452c-2.862-2.032-6.028-3.853-9.64-5.014
				c-3.562-1.172-7.718-1.613-11.601-0.44c-1.425,0.428-2.416,1.803-2.297,3.35c0.134,1.788,1.693,3.127,3.478,2.99l0.292-0.024
				c3.862-0.295,7.7,1.717,11.122,4.692l-13.928,7.697c-0.369-0.369-0.925-0.967-1.431-1.491c-1.342-1.428-3.103-2.782-5.106-3.859
				c-2.074-0.994-4.46-1.672-6.659-1.672c-4.407-0.057-7.617,1.184-10.354,1.738c-1.398,0.336-2.639,0.509-3.868,0.604
				c-0.589-0.024-1.211,0.071-1.785-0.03c-0.562-0.045-1.16-0.092-1.91-0.256c-2.934-0.512-5.24-1.303-8.548-2.481
				c-1.72-0.598-3.948-0.958-5.829-0.869c-1.901,0.068-3.591,0.381-5.237,0.711c-1.619,0.339-2.764,1.857-2.58,3.532
				c0.19,1.782,1.791,3.071,3.573,2.877l0.098-0.009c1.44-0.158,2.859-0.268,4.085-0.184c1.25,0.092,2.139,0.33,3.335,0.851
				c2.478,1.172,5.987,2.755,9.176,3.588c0.759,0.244,1.705,0.446,2.687,0.628c0.967,0.226,1.922,0.226,2.889,0.324
				c1.892,0.057,3.776-0.06,5.451-0.297c3.41-0.458,6.311-1.05,8.179-0.75c0.955,0.092,1.58,0.473,2.291,0.857
				c0.553,0.428,1.137,0.952,1.711,1.622l-9.643,5.332c-1.062,0.327-2.107,0.687-3.109,1.083c-3.603,1.41-7.141,2.452-10.732,2.654
				c-1.821,0.122-3.704,0.003-5.99-0.065c-2.258-0.071-4.808,0.08-7.138,0.667c-1.535,0.387-2.6,1.845-2.443,3.469
				c0.176,1.788,1.767,3.094,3.556,2.922l0.039-0.006c1.782-0.175,3.437-0.036,5.329,0.286c0.134,0.021,0.298,0.051,0.434,0.074
				l-79.649,44.021l-11.318,20.129l-11.661,20.739c-1.336,2.368-3.803,3.698-6.338,3.698c-1.199,0-2.419-0.295-3.538-0.925
				L53.71,528.742c-1.122-0.628-1.988-1.523-2.618-2.55C50.872,525.829,50.687,525.454,50.533,525.062"/>
		</g>
	</g>
</g>
</svg>
